<?xml version="1.0" encoding="iso-8859-1"?>
<!-- Generator: Adobe Illustrator 19.0.0, SVG Export Plug-In . SVG Version: 6.00 Build 0)  -->
<svg version="1.1" id="Layer_1" xmlns="http://www.w3.org/2000/svg" xmlns:xlink="http://www.w3.org/1999/xlink" x="0px" y="0px"
	 viewBox="0 0 512 512" style="enable-background:new 0 0 512 512;" xml:space="preserve">
<g>
	<g>
		<path d="M490.053,118.398H259.926V77.852c0-12.121-9.826-21.947-21.947-21.947H71.731c-12.121,0-21.947,9.826-21.947,21.947
			v40.546H21.947C9.826,118.398,0,128.224,0,140.345v293.804c0,12.121,9.826,21.947,21.947,21.947h468.106
			c12.121,0,21.947-9.826,21.947-21.947V140.345C512,128.224,502.174,118.398,490.053,118.398z M93.678,99.799h122.354v18.599
			H93.678V99.799z M468.106,412.201H43.894v-249.91h424.212V412.201z"/>
	</g>
</g>
<g>
</g>
<g>
</g>
<g>
</g>
<g>
</g>
<g>
</g>
<g>
</g>
<g>
</g>
<g>
</g>
<g>
</g>
<g>
</g>
<g>
</g>
<g>
</g>
<g>
</g>
<g>
</g>
<g>
</g>
</svg>
